<svg xmlns="http://www.w3.org/2000/svg" xmlns:xlink="http://www.w3.org/1999/xlink" width="1920" zoomAndPan="magnify" viewBox="0 0 1440 809.999993" height="1080" preserveAspectRatio="xMidYMid meet" version="1.0"><defs><clipPath id="29921e8948"><path d="M 1202 42 L 1397 42 L 1397 231 L 1202 231 Z M 1202 42 " clip-rule="nonzero"/></clipPath><clipPath id="51beaaec24"><path d="M 1216.398438 286.296875 L 1168.242188 69.585938 L 1403.257812 17.359375 L 1451.414062 234.074219 Z M 1216.398438 286.296875 " clip-rule="nonzero"/></clipPath><clipPath id="0ab3c5e91c"><path d="M 1216.398438 286.296875 L 1168.242188 69.585938 L 1403.257812 17.359375 L 1451.414062 234.074219 Z M 1216.398438 286.296875 " clip-rule="nonzero"/></clipPath><clipPath id="5d1c1ae71f"><path d="M 407.140625 449.726562 L 1032.859375 449.726562 L 1032.859375 810 L 407.140625 810 Z M 407.140625 449.726562 " clip-rule="nonzero"/></clipPath><clipPath id="5ea030bed2"><path d="M 720 449.726562 C 547.210938 449.726562 407.140625 589.796875 407.140625 762.585938 C 407.140625 935.375 547.210938 1075.445312 720 1075.445312 C 892.789062 1075.445312 1032.859375 935.375 1032.859375 762.585938 C 1032.859375 589.796875 892.789062 449.726562 720 449.726562 " clip-rule="nonzero"/></clipPath><clipPath id="d123b1f873"><path d="M 970.304688 498 L 1149 498 L 1149 641 L 970.304688 641 Z M 970.304688 498 " clip-rule="nonzero"/></clipPath><clipPath id="e79d7bf179"><path d="M 0 510 L 237 510 L 237 682 L 0 682 Z M 0 510 " clip-rule="nonzero"/></clipPath><clipPath id="e8054487f0"><path d="M 273.292969 637.679688 L 135.636719 762.769531 L -7.105469 605.691406 L 130.546875 480.601562 Z M 273.292969 637.679688 " clip-rule="nonzero"/></clipPath><clipPath id="16abce7eef"><path d="M 135.847656 762.582031 L 273.5 637.492188 L 130.757812 480.410156 L -6.898438 605.5 Z M 135.847656 762.582031 " clip-rule="nonzero"/></clipPath><clipPath id="00245fdf7e"><path d="M 227 621 L 260 621 L 260 658 L 227 658 Z M 227 621 " clip-rule="nonzero"/></clipPath><clipPath id="cc58142a3d"><path d="M 273.292969 637.679688 L 135.636719 762.769531 L -7.105469 605.691406 L 130.546875 480.601562 Z M 273.292969 637.679688 " clip-rule="nonzero"/></clipPath><clipPath id="1438e1610b"><path d="M 135.847656 762.582031 L 273.5 637.492188 L 130.757812 480.410156 L -6.898438 605.5 Z M 135.847656 762.582031 " clip-rule="nonzero"/></clipPath></defs><rect x="-144" width="1728" fill="#ffffff" y="-80.999999" height="971.999992" fill-opacity="1"/><rect x="-144" width="1728" fill="#ffffff" y="-80.999999" height="971.999992" fill-opacity="1"/><rect x="-144" width="1728" fill="#ffffff" y="-80.999999" height="971.999992" fill-opacity="1"/><g clip-path="url(#29921e8948)"><g clip-path="url(#51beaaec24)"><g clip-path="url(#0ab3c5e91c)"><path fill="#fbce26" d="M 1225.277344 196.160156 C 1230.46875 191.945312 1235.976562 188.148438 1241.136719 183.972656 C 1242.539062 182.996094 1242.890625 181.0625 1241.917969 179.652344 C 1240.941406 178.246094 1239.007812 177.894531 1237.601562 178.871094 C 1230.933594 182.8125 1224.464844 187.300781 1217.285156 190.382812 C 1216 190.933594 1214.769531 191.316406 1213.410156 191.632812 C 1211.152344 192.15625 1209.359375 192.136719 1207.074219 192.417969 C 1204.914062 193.65625 1203.515625 195.722656 1203.050781 197.984375 C 1201.355469 201.046875 1201.707031 204.976562 1204.199219 207.699219 C 1206.6875 208.988281 1208.773438 209.929688 1211.242188 211.230469 C 1212.730469 212.011719 1214.0625 212.851562 1215.453125 213.792969 C 1222.976562 218.90625 1230.128906 224.46875 1237.230469 230.171875 C 1238.496094 231.328125 1240.457031 231.238281 1241.609375 229.976562 C 1242.765625 228.707031 1242.671875 226.746094 1241.410156 225.589844 C 1237.539062 221.679688 1233.425781 218.054688 1229.441406 214.257812 C 1227.636719 212.53125 1225.808594 210.839844 1224.085938 209.046875 C 1237.046875 210.9375 1250.125 212.933594 1263.21875 214 C 1275.078125 214.96875 1286.933594 215.242188 1298.738281 213.832031 C 1306.949219 212.933594 1317.183594 209.898438 1324.316406 204.117188 C 1329.503906 199.90625 1333.15625 194.328125 1333.566406 187.101562 C 1334.347656 174.496094 1322.71875 157.132812 1317.847656 142.347656 C 1315.78125 136.09375 1314.902344 130.363281 1318.011719 125.992188 C 1318.871094 124.78125 1320.542969 124.367188 1322.609375 124.097656 C 1325.578125 123.714844 1329.273438 123.90625 1333.371094 124.339844 C 1347.988281 125.886719 1367.277344 130.289062 1379 126.804688 C 1388.402344 124.015625 1394.09375 116.914062 1390.160156 100.644531 C 1389.550781 98.125 1388.738281 95.65625 1387.785156 93.238281 C 1386.847656 90.867188 1385.773438 88.546875 1384.628906 86.277344 C 1382.894531 82.847656 1381.035156 79.472656 1379.046875 76.171875 C 1377.050781 72.859375 1374.921875 69.632812 1372.65625 66.515625 C 1369.582031 62.292969 1366.378906 58.28125 1362.949219 54.480469 C 1359.496094 50.652344 1355.808594 47.042969 1351.789062 43.652344 C 1350.484375 42.546875 1348.523438 42.71875 1347.421875 44.027344 C 1346.320312 45.332031 1346.488281 47.296875 1347.796875 48.398438 C 1351.605469 51.597656 1355.097656 55.011719 1358.375 58.625 C 1361.667969 62.261719 1364.742188 66.101562 1367.691406 70.136719 C 1369.863281 73.105469 1371.898438 76.1875 1373.808594 79.339844 C 1375.722656 82.503906 1377.511719 85.75 1379.1875 89.039062 C 1380.246094 91.136719 1381.242188 93.28125 1382.105469 95.484375 C 1382.957031 97.636719 1383.683594 99.835938 1384.226562 102.082031 C 1387.007812 113.585938 1383.914062 118.984375 1377.261719 120.949219 C 1366.144531 124.238281 1347.882812 119.679688 1334.03125 118.171875 C 1323.949219 117.074219 1315.972656 118.054688 1312.902344 122.335938 C 1309.863281 126.570312 1309.1875 131.703125 1310.082031 137.398438 C 1311.308594 145.195312 1315.617188 154.183594 1319.644531 163.023438 C 1323.507812 171.511719 1327.191406 179.824219 1326.6875 186.628906 C 1326.289062 191.707031 1323.550781 195.546875 1319.816406 198.398438 C 1313.683594 203.085938 1304.917969 205.164062 1297.988281 205.675781 C 1286.738281 206.402344 1275.515625 205.605469 1264.34375 203.984375 C 1251.214844 202.074219 1238.195312 199.035156 1225.277344 196.160156 Z M 1337.523438 178.242188 C 1338.117188 182.652344 1338.636719 187.84375 1338.179688 192.769531 C 1337.878906 196.023438 1337.148438 199.152344 1335.675781 201.839844 C 1333.386719 206.121094 1329.660156 209.238281 1325.1875 211.632812 C 1322.398438 213.125 1319.316406 214.332031 1316.070312 215.335938 C 1311.40625 216.773438 1306.40625 217.792969 1301.453125 218.511719 C 1293.136719 219.722656 1284.988281 220.164062 1278.875 220.503906 C 1285.023438 220.574219 1293.226562 220.777344 1301.628906 220.027344 C 1306.722656 219.574219 1311.890625 218.792969 1316.6875 217.433594 C 1320.117188 216.460938 1323.359375 215.191406 1326.25 213.578125 C 1331.027344 210.910156 1334.847656 207.296875 1337.136719 202.582031 C 1338.523438 199.644531 1339.132812 196.289062 1339.222656 192.828125 C 1339.351562 187.835938 1338.4375 182.644531 1337.523438 178.242188 Z M 1395 98.359375 C 1395.332031 100.515625 1395.621094 102.628906 1395.789062 104.753906 C 1395.953125 106.863281 1395.996094 108.972656 1395.816406 111.136719 C 1395.335938 117.433594 1393.558594 121.976562 1390.898438 125.261719 C 1388.765625 127.894531 1386.046875 129.671875 1382.925781 130.882812 C 1381.109375 131.582031 1379.160156 132.105469 1377.113281 132.476562 C 1374.214844 133 1371.125 133.234375 1367.9375 133.277344 C 1360.167969 133.382812 1351.867188 132.386719 1344.5625 131.683594 C 1351.839844 132.925781 1360.097656 134.621094 1367.910156 134.984375 C 1371.21875 135.140625 1374.441406 135.054688 1377.464844 134.605469 C 1379.683594 134.277344 1381.792969 133.757812 1383.746094 132.992188 C 1387.226562 131.625 1390.230469 129.523438 1392.476562 126.488281 C 1395.152344 122.871094 1396.746094 117.90625 1396.847656 111.183594 C 1396.859375 109.414062 1396.738281 107.6875 1396.515625 105.976562 C 1396.179688 103.421875 1395.617188 100.917969 1395 98.359375 Z M 1395 98.359375 " fill-opacity="1" fill-rule="evenodd"/></g></g></g><g clip-path="url(#5d1c1ae71f)"><g clip-path="url(#5ea030bed2)"><path fill="#fafaf7" d="M 407.140625 449.726562 L 1032.859375 449.726562 L 1032.859375 1075.445312 L 407.140625 1075.445312 Z M 407.140625 449.726562 " fill-opacity="1" fill-rule="nonzero"/></g></g><g clip-path="url(#d123b1f873)"><path fill="#fbce26" d="M 970.703125 578.722656 C 971.046875 579.742188 972.003906 579.597656 972.839844 579.359375 C 975.128906 578.867188 977.410156 578.382812 979.699219 577.90625 C 985.980469 576.527344 995.796875 574.691406 999.695312 574.308594 C 1007.605469 573.371094 1016.042969 572.875 1023.664062 573.898438 C 1019.414062 580.855469 1015.652344 588.105469 1012.113281 595.453125 C 1008 604.1875 1002.386719 614.941406 1008.03125 624.21875 C 1016.515625 637.023438 1034.453125 625.898438 1040.753906 616.230469 C 1049.746094 603.207031 1053.863281 584.816406 1037.867188 575.371094 C 1034.78125 573.742188 1031.480469 572.609375 1028.058594 571.835938 C 1035.101562 560.9375 1042.609375 551.464844 1050.914062 541.421875 C 1063.992188 525.71875 1078.046875 511.914062 1096.726562 503.707031 C 1105.976562 499.554688 1116.257812 499.355469 1123.34375 508.070312 C 1127.996094 514.945312 1127.984375 522.296875 1127.128906 530.195312 C 1125.871094 539 1121.621094 549.863281 1117.363281 558.308594 C 1113.308594 566.566406 1108.792969 574.609375 1103.6875 582.277344 C 1097.664062 592.21875 1081.710938 611.207031 1086.082031 622.890625 C 1089.074219 630.765625 1100.996094 626.582031 1106.832031 624.582031 C 1117.777344 620.671875 1127.242188 613.828125 1138.019531 611.105469 C 1153.089844 608.269531 1143.878906 625.695312 1139.9375 632.035156 C 1138.238281 634.734375 1136.988281 636.828125 1134.410156 638.847656 C 1133.421875 639.816406 1134.925781 641.332031 1135.917969 640.355469 C 1139.773438 637.273438 1142.011719 632.695312 1144.40625 628.476562 C 1149.199219 619.890625 1152.4375 606.457031 1137.628906 608.960938 C 1126.882812 611.570312 1116.941406 618.488281 1107.347656 621.980469 C 1102.953125 623.695312 1098.5625 624.980469 1094.40625 625.167969 C 1090.082031 625.558594 1087.960938 623.332031 1087.691406 619.558594 C 1086.761719 607.859375 1103.78125 588.074219 1110.515625 576.125 C 1115.144531 568.390625 1119.3125 560.382812 1122.933594 552.132812 C 1126.242188 544.441406 1129.007812 536.410156 1129.8125 528.039062 C 1130.378906 520.996094 1129.738281 513.367188 1125.769531 507.335938 C 1119.414062 498.242188 1107.730469 496.605469 1097.910156 500.675781 C 1079.789062 507.863281 1064.949219 521.183594 1052.378906 535.78125 C 1043.414062 546.195312 1034.824219 556.957031 1027.191406 568.402344 C 1026.550781 569.359375 1025.914062 570.339844 1025.292969 571.320312 C 1015.539062 569.710938 1004.976562 570.785156 995.601562 572.082031 C 987.816406 573.300781 980.152344 575.195312 972.507812 577.101562 C 972.054688 577.257812 971.519531 577.257812 971.128906 577.558594 C 970.734375 577.773438 970.582031 578.300781 970.703125 578.722656 Z M 1035.359375 577.164062 C 1048.375 583.753906 1048.085938 597.484375 1041.746094 609.445312 C 1038.269531 616.035156 1034.484375 620.753906 1028.417969 624.210938 C 1022.828125 627.589844 1016.042969 628.753906 1012.074219 625.136719 C 1005.070312 618.519531 1008.96875 607.691406 1013.308594 598.910156 C 1016.835938 591.453125 1020.582031 584.09375 1024.800781 577.011719 C 1025.347656 576.101562 1025.914062 575.226562 1026.46875 574.339844 C 1029.648438 574.960938 1032.65625 575.855469 1035.359375 577.164062 Z M 1035.359375 577.164062 " fill-opacity="1" fill-rule="nonzero"/></g><g clip-path="url(#e79d7bf179)"><g clip-path="url(#e8054487f0)"><g clip-path="url(#16abce7eef)"><path fill="#fbce26" d="M 79.421875 526.835938 C 79.398438 526.859375 79.398438 526.859375 79.421875 526.835938 C 78.046875 528.132812 76.742188 529.453125 75.5 530.847656 C 74.484375 531.992188 73.488281 533.164062 72.519531 534.363281 C 71.945312 535.0625 72.058594 536.121094 72.78125 536.671875 C 73.476562 537.242188 74.5625 537.105469 75.089844 536.402344 C 76.011719 535.25 76.957031 534.125 77.949219 533.046875 C 79.136719 531.742188 80.367188 530.488281 81.644531 529.285156 C 82.308594 528.636719 82.359375 527.605469 81.714844 526.945312 C 81.113281 526.285156 80.085938 526.234375 79.421875 526.835938 Z M 87.132812 520.589844 C 86.519531 521.148438 86.402344 522.054688 86.882812 522.78125 C 87.386719 523.53125 88.433594 523.699219 89.183594 523.195312 C 91.875 521.328125 94.671875 519.679688 97.503906 518.3125 C 98.34375 517.90625 98.671875 516.9375 98.269531 516.097656 C 97.886719 515.285156 96.898438 514.933594 96.058594 515.339844 C 93.058594 516.769531 90.089844 518.527344 87.253906 520.480469 C 87.230469 520.5 87.179688 520.546875 87.132812 520.589844 Z M 67.066406 542.351562 C 66.945312 542.464844 66.84375 542.601562 66.769531 542.714844 C 65.035156 545.585938 63.480469 548.605469 62.109375 551.726562 C 61.742188 552.550781 62.113281 553.554688 62.964844 553.898438 C 63.789062 554.265625 64.792969 553.890625 65.140625 553.039062 C 66.457031 550.054688 67.933594 547.148438 69.589844 544.390625 C 70.050781 543.617188 69.796875 542.597656 69.023438 542.140625 C 68.40625 541.761719 67.605469 541.863281 67.066406 542.351562 Z M 104.980469 512.054688 C 104.539062 512.457031 104.320312 513.101562 104.476562 513.71875 C 104.714844 514.621094 105.625 515.132812 106.503906 514.867188 C 109.664062 514.007812 112.832031 513.453125 115.953125 513.292969 C 116.847656 513.242188 117.566406 512.457031 117.515625 511.5625 C 117.464844 510.671875 116.679688 509.957031 115.785156 510.007812 C 112.449219 510.226562 109.050781 510.769531 105.675781 511.691406 C 105.390625 511.769531 105.152344 511.898438 104.980469 512.054688 Z M -0.8125 608.59375 C -0.957031 608.726562 -1.082031 608.882812 -1.160156 609.042969 C -1.597656 609.84375 -1.273438 610.84375 -0.472656 611.277344 C 2.425781 612.796875 5.472656 614.273438 8.519531 615.660156 C 9.34375 616.023438 10.324219 615.671875 10.714844 614.824219 C 11.085938 614 10.734375 613.019531 9.886719 612.628906 C 6.859375 611.269531 3.90625 609.84375 1.050781 608.328125 C 0.4375 607.996094 -0.320312 608.148438 -0.8125 608.59375 Z M 59.082031 560.464844 C 58.863281 560.664062 58.6875 560.914062 58.601562 561.214844 C 57.625 564.425781 56.855469 567.714844 56.222656 571.058594 C 56.0625 571.964844 56.652344 572.8125 57.558594 572.972656 C 58.464844 573.132812 59.3125 572.539062 59.472656 571.632812 C 60.050781 568.425781 60.816406 565.230469 61.742188 562.15625 C 62.019531 561.28125 61.5 560.367188 60.625 560.089844 C 60.09375 559.949219 59.5 560.085938 59.082031 560.464844 Z M 124.644531 510.984375 C 124.371094 511.230469 124.195312 511.523438 124.128906 511.898438 C 123.96875 512.804688 124.558594 513.652344 125.464844 513.808594 C 128.554688 514.351562 131.578125 515.3125 134.535156 516.648438 C 135.359375 517.015625 136.335938 516.660156 136.730469 515.8125 C 137.097656 514.988281 136.75 514.011719 135.902344 513.617188 C 132.714844 512.179688 129.4375 511.136719 126.070312 510.535156 C 125.535156 510.488281 125.011719 510.648438 124.644531 510.984375 Z M 55.550781 579.976562 C 55.234375 580.265625 55.050781 580.65625 55.003906 581.101562 C 54.773438 584.4375 54.746094 587.859375 54.886719 591.214844 C 54.910156 592.128906 55.695312 592.84375 56.613281 592.769531 C 57.527344 592.742188 58.246094 591.957031 58.175781 591.039062 C 58.050781 587.800781 58.070312 584.523438 58.277344 581.300781 C 58.34375 580.390625 57.65625 579.582031 56.722656 579.539062 C 56.300781 579.519531 55.871094 579.6875 55.550781 579.976562 Z M 17.277344 616.722656 C 17.082031 616.902344 16.953125 617.109375 16.824219 617.359375 C 16.5 618.234375 16.921875 619.191406 17.773438 619.488281 C 20.878906 620.6875 24.058594 621.773438 27.242188 622.765625 C 28.121094 623.042969 29.058594 622.546875 29.3125 621.691406 C 29.589844 620.816406 29.09375 619.878906 28.242188 619.625 C 25.125 618.660156 22.015625 617.554688 18.957031 616.40625 C 18.382812 616.167969 17.71875 616.324219 17.277344 616.722656 Z M 142.546875 519.058594 C 142.472656 519.128906 142.398438 519.195312 142.347656 519.285156 C 141.796875 520.007812 141.933594 521.046875 142.632812 521.617188 C 144.710938 523.214844 146.683594 525.039062 148.503906 527.046875 C 148.863281 527.4375 149.195312 527.804688 149.527344 528.21875 C 150.125 528.925781 151.175781 529 151.863281 528.375 C 152.550781 527.703125 152.644531 526.726562 152.023438 526.039062 C 151.644531 525.625 151.3125 525.210938 150.933594 524.792969 C 148.980469 522.640625 146.847656 520.691406 144.636719 518.949219 C 144.027344 518.472656 143.109375 518.546875 142.546875 519.058594 Z M 56.410156 599.789062 C 56.019531 600.148438 55.804688 600.699219 55.894531 601.289062 C 56.410156 604.617188 57.113281 607.953125 58.011719 611.15625 C 58.25 612.058594 59.160156 612.570312 60.039062 612.304688 C 60.921875 612.042969 61.457031 611.152344 61.195312 610.273438 C 60.339844 607.167969 59.648438 603.996094 59.175781 600.761719 C 59.03125 599.867188 58.195312 599.242188 57.296875 599.386719 C 56.921875 599.414062 56.65625 599.566406 56.410156 599.789062 Z M 36.199219 622.671875 C 35.953125 622.894531 35.800781 623.167969 35.691406 623.488281 C 35.460938 624.367188 36 625.261719 36.882812 625.488281 C 40.097656 626.320312 43.390625 627.035156 46.664062 627.632812 C 47.570312 627.792969 48.441406 627.226562 48.601562 626.320312 C 48.761719 625.414062 48.195312 624.542969 47.289062 624.382812 C 44.089844 623.765625 40.84375 623.050781 37.695312 622.246094 C 37.160156 622.152344 36.589844 622.3125 36.199219 622.671875 Z M 61.664062 618.871094 C 61.175781 619.316406 60.972656 620.082031 61.246094 620.726562 C 61.875 622.253906 62.527344 623.761719 63.230469 625.222656 C 63.460938 625.726562 63.71875 626.253906 63.976562 626.734375 C 62.503906 626.59375 61.035156 626.457031 59.59375 626.292969 L 57.007812 625.960938 C 56.097656 625.851562 55.273438 626.46875 55.132812 627.398438 C 55.019531 628.304688 55.632812 629.132812 56.566406 629.269531 L 59.195312 629.601562 C 61.433594 629.847656 63.648438 630.070312 65.890625 630.21875 C 66.402344 630.738281 67.195312 630.867188 67.84375 630.5 C 68.660156 630.070312 68.945312 629.050781 68.492188 628.257812 C 67.699219 626.789062 66.925781 625.300781 66.203125 623.816406 C 65.523438 622.378906 64.890625 620.945312 64.28125 619.484375 C 63.925781 618.648438 62.960938 618.230469 62.125 618.589844 C 61.980469 618.628906 61.8125 618.738281 61.664062 618.871094 Z M 155.355469 534.042969 C 154.792969 534.554688 154.65625 535.394531 155.023438 536.089844 C 156.621094 538.882812 157.90625 541.824219 158.953125 544.847656 C 159.238281 545.703125 160.199219 546.171875 161.058594 545.882812 C 161.914062 545.597656 162.382812 544.632812 162.097656 543.777344 C 161.011719 540.5625 159.597656 537.429688 157.914062 534.445312 C 157.460938 533.652344 156.445312 533.367188 155.648438 533.824219 C 155.550781 533.914062 155.453125 533.953125 155.355469 534.042969 Z M 75.476562 627.71875 C 75.132812 628.027344 74.949219 628.464844 74.925781 628.933594 C 74.953125 629.847656 75.664062 630.585938 76.601562 630.582031 C 80 630.574219 83.359375 630.429688 86.652344 630.160156 C 87.570312 630.085938 88.238281 629.296875 88.167969 628.382812 C 88.09375 627.464844 87.308594 626.792969 86.390625 626.867188 C 83.191406 627.140625 79.90625 627.269531 76.601562 627.277344 C 76.15625 627.28125 75.773438 627.449219 75.476562 627.71875 Z M 161.683594 552.730469 C 161.292969 553.085938 161.078125 553.640625 161.167969 554.183594 C 161.566406 557.035156 161.6875 559.875 161.546875 562.679688 L 161.496094 563.753906 C 161.429688 564.667969 162.117188 565.472656 163.050781 565.515625 C 163.960938 565.582031 164.746094 564.867188 164.8125 563.957031 L 164.894531 562.8125 C 165.039062 559.820312 164.882812 556.746094 164.46875 553.726562 C 164.351562 552.808594 163.515625 552.183594 162.59375 552.304688 C 162.242188 552.359375 161.929688 552.507812 161.683594 552.730469 Z M 71.21875 636.234375 C 70.605469 636.789062 70.515625 637.722656 70.972656 638.421875 C 72.902344 641.136719 75.019531 643.8125 77.214844 646.328125 C 77.839844 647.015625 78.867188 647.0625 79.550781 646.484375 C 79.550781 646.484375 79.550781 646.484375 79.574219 646.464844 C 80.238281 645.863281 80.3125 644.8125 79.710938 644.148438 C 77.582031 641.707031 75.527344 639.152344 73.664062 636.511719 C 73.140625 635.785156 72.117188 635.59375 71.367188 636.097656 C 71.316406 636.144531 71.269531 636.1875 71.21875 636.234375 Z M 95.261719 626.089844 C 94.871094 626.445312 94.65625 626.996094 94.742188 627.585938 C 94.886719 628.484375 95.746094 629.085938 96.644531 628.941406 C 100.023438 628.375 103.335938 627.683594 106.515625 626.851562 C 107.394531 626.632812 107.933594 625.699219 107.691406 624.84375 C 107.476562 623.964844 106.542969 623.429688 105.6875 623.671875 C 102.625 624.488281 99.40625 625.183594 96.125 625.707031 C 95.769531 625.761719 95.480469 625.890625 95.261719 626.089844 Z M 160.484375 572.445312 C 160.242188 572.667969 160.085938 572.945312 159.976562 573.265625 C 159.21875 576.324219 158.15625 579.390625 156.859375 582.398438 C 156.492188 583.222656 156.890625 584.203125 157.714844 584.570312 C 158.539062 584.9375 159.542969 584.5625 159.890625 583.710938 C 161.261719 580.542969 162.382812 577.292969 163.195312 574.050781 C 163.425781 573.171875 162.882812 572.277344 162.003906 572.050781 C 161.425781 571.90625 160.902344 572.066406 160.484375 572.445312 Z M 114.417969 621.011719 C 113.925781 621.457031 113.726562 622.175781 114 622.820312 C 114.332031 623.679688 115.273438 624.121094 116.132812 623.785156 C 119.332031 622.578125 122.421875 621.199219 125.378906 619.671875 C 126.195312 619.242188 126.5 618.25 126.09375 617.457031 C 125.667969 616.640625 124.671875 616.335938 123.878906 616.746094 C 121.042969 618.207031 118.050781 619.542969 114.996094 620.710938 C 114.757812 620.746094 114.589844 620.855469 114.417969 621.011719 Z M 84.292969 651.066406 C 84.269531 651.085938 84.222656 651.132812 84.195312 651.152344 C 83.554688 651.828125 83.621094 652.882812 84.292969 653.476562 C 86.761719 655.75 89.347656 657.90625 92.015625 659.953125 C 92.738281 660.503906 93.800781 660.339844 94.324219 659.640625 C 94.875 658.917969 94.738281 657.878906 94.015625 657.328125 C 91.441406 655.382812 88.894531 653.273438 86.542969 651.078125 C 85.890625 650.507812 84.90625 650.507812 84.292969 651.066406 Z M 152.59375 590.5625 C 152.496094 590.652344 152.398438 590.785156 152.320312 590.898438 C 150.644531 593.585938 148.6875 596.210938 146.574219 598.714844 C 146 599.414062 146.066406 600.46875 146.765625 601.042969 C 147.464844 601.613281 148.519531 601.546875 149.09375 600.847656 C 151.332031 598.234375 153.339844 595.46875 155.117188 592.648438 C 155.625 591.875 155.371094 590.855469 154.597656 590.351562 C 153.957031 589.992188 153.136719 590.070312 152.59375 590.5625 Z M 132.015625 611.855469 C 131.402344 612.410156 131.289062 613.320312 131.769531 614 C 132.273438 614.75 133.339844 614.9375 134.070312 614.410156 C 136.855469 612.503906 139.539062 610.378906 142.015625 608.128906 C 142.699219 607.503906 142.75 606.476562 142.128906 605.792969 C 141.503906 605.105469 140.476562 605.058594 139.789062 605.683594 C 137.414062 607.84375 134.828125 609.878906 132.1875 611.699219 C 132.113281 611.765625 132.0625 611.808594 132.015625 611.855469 Z M 100.0625 663.046875 C 99.941406 663.160156 99.863281 663.273438 99.765625 663.410156 C 99.304688 664.183594 99.511719 665.199219 100.308594 665.683594 C 103.152344 667.433594 106.117188 669.070312 109.117188 670.546875 C 109.9375 670.960938 110.964844 670.609375 111.332031 669.78125 C 111.746094 668.960938 111.394531 667.980469 110.574219 667.570312 C 107.667969 666.144531 104.792969 664.558594 102.039062 662.859375 C 101.402344 662.453125 100.601562 662.558594 100.0625 663.046875 Z M 117.863281 671.800781 C 117.667969 671.976562 117.539062 672.183594 117.410156 672.433594 C 117.085938 673.308594 117.507812 674.265625 118.359375 674.5625 C 121.488281 675.742188 124.695312 676.804688 127.929688 677.703125 C 128.808594 677.933594 129.726562 677.414062 129.976562 676.558594 C 130.207031 675.679688 129.691406 674.765625 128.835938 674.515625 C 125.714844 673.640625 122.582031 672.605469 119.542969 671.480469 C 118.96875 671.242188 118.304688 671.398438 117.863281 671.800781 Z M 136.960938 677.050781 C 136.691406 677.292969 136.511719 677.589844 136.421875 677.984375 C 136.261719 678.890625 136.851562 679.738281 137.757812 679.898438 C 139.199219 680.152344 140.664062 680.386719 142.128906 680.570312 C 143.992188 680.800781 145.878906 681.003906 147.75 681.140625 C 148.660156 681.203125 149.464844 680.515625 149.535156 679.605469 C 149.601562 678.695312 148.914062 677.890625 148.003906 677.824219 C 146.183594 677.691406 144.363281 677.511719 142.550781 677.242188 C 141.128906 677.058594 139.734375 676.851562 138.316406 676.621094 C 137.828125 676.574219 137.328125 676.714844 136.960938 677.050781 Z M 156.730469 678.605469 C 156.386719 678.917969 156.175781 679.378906 156.199219 679.847656 C 156.226562 680.761719 156.964844 681.476562 157.875 681.496094 C 161.230469 681.441406 164.613281 681.273438 167.957031 680.914062 C 168.851562 680.8125 169.523438 680.027344 169.425781 679.085938 C 169.332031 678.1875 168.519531 677.496094 167.601562 677.617188 C 164.375 677.957031 161.085938 678.132812 157.851562 678.167969 C 157.40625 678.171875 157.023438 678.339844 156.730469 678.605469 Z M 176.460938 676.625 C 176.042969 677.003906 175.828125 677.554688 175.964844 678.148438 C 176.105469 679.046875 176.992188 679.625 177.890625 679.480469 C 181.152344 678.882812 184.46875 678.101562 187.699219 677.222656 C 188.578125 676.957031 189.113281 676.070312 188.851562 675.191406 C 188.617188 674.289062 187.703125 673.777344 186.824219 674.042969 C 183.667969 674.902344 180.445312 675.640625 177.273438 676.242188 C 176.945312 676.273438 176.679688 676.425781 176.460938 676.625 Z M 195.621094 671.40625 C 195.132812 671.851562 194.957031 672.546875 195.183594 673.191406 C 195.46875 674.046875 196.457031 674.492188 197.289062 674.179688 C 200.460938 673.039062 203.59375 671.757812 206.613281 670.398438 C 207.449219 670.039062 207.828125 669.027344 207.445312 668.210938 C 207.0625 667.398438 206.097656 667.023438 205.261719 667.382812 C 202.3125 668.722656 199.253906 669.9375 196.15625 671.058594 C 195.964844 671.140625 195.769531 671.273438 195.621094 671.40625 Z M 213.734375 663.257812 C 213.167969 663.769531 213.011719 664.582031 213.375 665.28125 C 213.804688 666.097656 214.820312 666.378906 215.617188 665.921875 C 218.53125 664.351562 221.425781 662.609375 224.28125 660.777344 C 225.027344 660.320312 225.269531 659.253906 224.789062 658.480469 C 224.289062 657.730469 223.269531 657.496094 222.496094 657.976562 C 219.738281 659.769531 216.914062 661.441406 214.074219 662.992188 C 213.929688 663.082031 213.832031 663.167969 213.734375 663.257812 Z M 230.402344 652.488281 C 229.765625 653.066406 229.695312 654.023438 230.199219 654.726562 C 230.75 655.433594 231.796875 655.601562 232.503906 655.046875 C 233.574219 654.253906 234.597656 653.410156 235.667969 652.570312 C 236.496094 651.953125 236.476562 650.945312 235.925781 650.242188 C 235.351562 649.511719 234.300781 649.4375 233.59375 649.992188 C 232.59375 650.8125 231.570312 651.605469 230.546875 652.402344 C 230.476562 652.421875 230.449219 652.445312 230.402344 652.488281 Z M 230.402344 652.488281 " fill-opacity="1" fill-rule="nonzero"/></g></g></g><g clip-path="url(#00245fdf7e)"><g clip-path="url(#cc58142a3d)"><g clip-path="url(#1438e1610b)"><path fill="#fbce26" d="M 250.992188 657.855469 L 259.214844 621.882812 L 227.613281 636.171875 L 242.960938 640.449219 Z M 250.992188 657.855469 " fill-opacity="1" fill-rule="nonzero"/></g></g></g></svg>